# xmcd
#
# Track frame offsets: 
#        150
#        13716
#        28973
#        39990
#        48873
#        56853
#        72345
#        90715
#        108111
#        121035
#        140676
#        156600
#        170004
#        185102
#
# Disc length: 2690 seconds
#
# Revision: 2
# Processed by: cddbd v1.4PL0 Copyright (c) Steve Scherf et al.
# Submitted via: ExactAudioCopy v0.90b4
#
DISCID=c80a800e
DTITLE=Art Turner - Story Water
DYEAR=1997
DGENRE=New Age
TTITLE0=We-No-Nah
TTITLE1=Pikaia, New Mexico
TTITLE2=Before Sunrise
TTITLE3=Unseen Mountain
TTITLE4=Story Water
TTITLE5=Buckstitch Babe
TTITLE6=Blackfish In Time
TTITLE7=Cottonwood
TTITLE8=Blanket Dance
TTITLE9=Lost Village
TTITLE10=Rainmaker
TTITLE11=Gateway
TTITLE12=Crazy Horse
TTITLE13=The Spirit Enters
EXTD=YEAR: 1997
EXTT0=
EXTT1=
EXTT2=
EXTT3=
EXTT4=
EXTT5=
EXTT6=
EXTT7=
EXTT8=
EXTT9=
EXTT10=
EXTT11=
EXTT12=
EXTT13=
PLAYORDER=
